<svg xmlns="http://www.w3.org/2000/svg" viewBox="0 0 100 100">
  <rect width="100" height="100" rx="22" fill="#B40B0D"/>
  <g fill="#FBF7F0" transform="translate(14 16) scale(0.72)">
    <!-- upper-left hook -->
    <path d="M10 26 C18 12 40 10 50 24 C57 34.5 52 48.5 39.5 53
             C34.5 54.7 29 54 24.5 51.8 C32 49 39.5 44.5 41 37
             C42.5 29 36.5 24.5 29.5 25.8 C22.5 27 17.5 30.5 15 35.5 Z"/>
    <!-- lower-left bowl -->
    <path d="M3.5 57 C5 76 18 92.5 35 94 C47 95 56.5 89 60.5 80
             C55 87 46 90.5 37 89 C22 86.5 12 73 8.5 56 Z"/>
    <!-- right loop -->
    <path d="M49 57 C57 41.5 69 30.5 81 32.5 C93.5 34.5 98.5 49 96.5 63
             C94.5 78.5 85.5 90.5 73 91.5 C62 92.3 54.5 83.5 53.5 73.5
             C56.5 80.5 61.5 83.5 67.5 82.5 C75 81 80.5 71.5 81.5 62
             C82.5 53 79 47.2 75 46.8 C68 46.4 60 52.5 54 61 Z"/>
    <!-- chandra -->
    <path d="M37 12 C42.5 28.5 52 37.5 63 37.5 C74.5 37.5 83 29 88 16.5
             C83 26.5 74.5 32 63.5 32 C52.5 32 42.5 23.5 37 12 Z"/>
    <!-- bindu -->
    <path d="M62.5 0.5 L71.5 9.5 L62.5 18.5 L53.5 9.5 Z"/>
  </g>
</svg>
